<?xml version="1.0" encoding="UTF-8" ?>
<!DOCTYPE svg PUBLIC "-//W3C//DTD SVG 1.1//EN" "http://www.w3.org/Graphics/SVG/1.1/DTD/svg11.dtd">
<svg width="266pt" height="266pt" viewBox="0 0 266 266" version="1.1" xmlns="http://www.w3.org/2000/svg">
<path fill="#0c9b7f" stroke="#0c9b7f" stroke-width="0.09375" opacity="1.00" d=" M 116.3 9.2 C 119.4 3.2 126.6 0.9 133.0 1.0 C 139.6 1.3 147.1 3.2 150.7 9.3 C 153.2 12.9 151.9 17.5 152.5 21.6 C 155.4 24.2 159.3 25.4 162.7 27.2 C 170.5 31.2 178.4 35.0 186.0 39.3 C 182.1 40.6 178.0 41.8 173.9 42.2 C 170.4 40.8 166.9 39.6 163.3 38.7 C 158.3 36.0 153.5 33.0 148.2 30.8 C 144.4 29.2 141.0 32.5 138.2 34.6 C 135.0 34.7 131.8 34.6 128.6 34.8 C 126.4 32.9 124.0 31.1 121.0 30.7 C 115.9 32.2 111.1 34.9 106.5 37.7 C 104.9 38.3 103.3 39.0 101.7 39.5 C 99.8 38.2 97.9 36.8 96.0 35.4 C 95.4 36.9 94.8 38.4 94.2 39.9 C 91.6 39.1 89.2 37.7 87.1 35.9 C 96.2 30.9 105.5 26.6 114.6 21.7 C 114.7 17.5 113.9 13.0 116.3 9.2 Z" />
<path fill="#177092" stroke="#177092" stroke-width="0.09375" opacity="1.00" d=" M 128.6 34.8 C 131.8 34.6 135.0 34.7 138.2 34.6 C 143.0 37.3 148.7 36.1 153.8 37.3 C 157.0 38.0 160.1 38.6 163.3 38.7 C 166.9 39.6 170.4 40.8 173.9 42.2 C 181.8 46.2 190.2 49.5 197.6 54.4 C 202.2 57.4 206.7 60.6 211.3 63.5 C 212.4 66.5 214.9 68.8 217.0 71.1 C 220.9 75.1 223.7 80.0 227.5 84.0 C 229.1 85.9 230.4 88.1 231.3 90.4 C 233.4 96.7 235.8 102.8 238.1 109.0 C 240.1 124.6 241.8 140.8 237.3 156.2 C 235.3 164.2 231.5 171.5 228.7 179.2 C 227.9 181.3 226.9 183.4 225.7 185.2 C 217.5 192.6 211.3 202.2 201.7 207.9 C 192.4 213.0 183.3 218.8 173.2 222.3 C 170.0 222.9 166.6 222.8 163.5 221.6 C 164.5 220.7 165.5 219.9 166.5 219.0 C 171.1 217.9 175.0 215.1 179.2 213.1 C 181.9 211.7 184.2 209.7 186.4 207.6 C 182.6 206.7 178.8 205.6 175.2 204.1 C 176.4 203.3 177.5 202.5 178.8 201.9 C 182.0 201.7 185.1 204.1 188.2 203.2 C 189.4 201.3 190.0 199.2 190.8 197.1 C 192.0 197.1 193.2 197.1 194.3 197.0 C 195.3 195.2 195.7 193.1 196.8 191.4 C 200.8 189.7 205.5 191.4 209.4 189.5 C 211.5 186.2 211.9 182.1 213.6 178.7 C 215.7 174.4 219.4 171.3 223.1 168.5 C 221.6 167.1 220.2 165.6 218.7 164.1 C 223.0 161.4 228.1 160.0 232.1 156.7 C 230.6 156.1 229.2 155.4 227.8 154.8 C 227.8 152.5 228.4 149.9 227.2 147.8 C 225.0 143.9 221.6 140.6 220.2 136.2 C 219.2 132.7 218.0 129.1 216.0 126.0 C 216.2 125.8 216.5 125.4 216.7 125.2 C 218.0 125.3 219.3 125.4 220.5 125.4 C 221.9 123.3 222.5 120.9 223.8 118.7 C 225.3 117.7 227.2 117.4 229.0 116.8 C 228.9 116.1 228.9 115.3 228.9 114.6 C 226.6 114.9 224.2 115.1 221.9 114.9 C 223.2 113.2 224.5 111.5 225.9 109.8 C 224.8 105.8 224.6 101.7 224.3 97.6 C 224.2 95.1 222.0 93.5 221.2 91.3 C 220.3 88.7 220.1 85.8 218.5 83.5 C 214.4 77.2 207.8 73.5 202.0 69.0 C 197.2 65.2 190.3 65.3 185.9 61.1 C 184.1 59.4 185.1 56.9 185.3 54.8 C 183.1 57.5 180.8 61.0 177.0 61.1 C 172.3 62.0 168.2 58.3 166.3 54.3 C 165.9 51.9 166.5 49.4 166.8 47.0 C 161.7 48.9 157.0 51.5 151.7 52.8 C 150.4 51.1 149.4 48.8 147.2 48.0 C 141.8 46.6 135.6 48.5 132.4 53.3 C 126.8 52.9 121.2 52.2 115.7 52.8 C 111.8 53.1 109.7 57.4 105.8 57.4 C 100.5 57.8 95.2 58.8 90.0 59.5 C 88.9 58.1 87.7 56.8 86.6 55.5 C 85.1 56.5 83.5 57.5 82.0 58.5 C 78.6 57.5 75.3 55.7 71.7 55.9 C 67.3 57.7 64.1 61.7 61.6 65.8 C 59.5 68.4 63.4 70.0 64.8 71.9 C 63.4 73.8 62.0 75.7 59.8 76.8 C 53.9 80.1 47.3 81.9 41.1 84.4 C 41.1 85.7 41.2 87.0 41.2 88.3 C 42.7 88.8 44.3 89.3 45.8 89.8 C 45.8 92.0 45.9 94.2 45.2 96.4 C 43.7 99.3 40.6 101.0 38.9 103.9 C 37.9 106.3 37.5 108.9 36.9 111.5 C 39.2 110.2 41.8 109.3 44.4 109.7 C 42.4 112.5 39.4 113.9 36.2 114.9 C 36.3 120.7 37.3 126.6 40.0 131.9 C 36.9 131.3 33.9 130.1 30.7 130.7 C 27.9 131.5 26.1 134.1 24.1 136.2 C 24.2 127.6 24.3 118.8 26.4 110.3 C 29.2 103.8 32.1 97.3 33.9 90.4 C 32.9 90.5 30.9 90.6 29.9 90.7 C 34.2 89.5 37.4 86.2 39.6 82.5 C 43.9 75.7 49.7 70.1 55.0 64.1 C 68.5 52.7 84.5 44.0 101.7 39.5 C 103.3 39.0 104.9 38.3 106.5 37.7 C 113.9 36.7 121.3 36.4 128.6 34.8 Z" />
<path fill="#0a8f80" stroke="#0a8f80" stroke-width="0.09375" opacity="1.00" d=" M 96.0 35.4 C 97.9 36.8 99.8 38.2 101.7 39.5 C 84.5 44.0 68.5 52.7 55.0 64.1 C 49.7 66.8 44.4 69.2 39.5 72.5 C 39.4 75.8 39.4 79.2 39.6 82.5 C 37.4 86.2 34.2 89.5 29.9 90.7 C 28.8 91.2 27.6 91.8 26.7 92.7 C 25.8 98.5 26.7 104.4 26.4 110.3 C 24.3 118.8 24.2 127.6 24.1 136.2 C 24.4 138.4 24.7 140.5 24.9 142.6 C 25.0 147.0 25.2 151.4 26.6 155.5 C 26.7 162.2 26.1 168.9 26.7 175.5 C 28.7 178.5 32.6 179.9 36.1 179.3 C 37.6 181.4 39.3 183.4 41.0 185.5 C 39.8 187.1 38.3 188.5 37.6 190.3 C 37.7 192.4 38.4 194.5 38.9 196.5 C 35.7 195.8 32.4 194.9 29.5 193.2 C 29.5 191.9 29.5 190.6 29.4 189.3 C 26.7 187.5 23.5 186.0 22.3 182.7 C 20.4 178.2 19.6 173.2 18.8 168.4 C 17.9 169.6 17.1 170.8 16.2 172.0 C 16.0 152.0 16.2 132.0 16.1 112.0 C 16.0 107.8 16.2 103.6 16.7 99.4 C 17.7 97.6 18.7 95.8 19.8 94.1 C 20.5 94.1 21.3 94.2 22.1 94.3 C 22.4 88.8 23.0 83.3 25.5 78.3 C 27.7 75.0 31.5 73.1 34.2 70.2 C 37.7 66.4 41.4 62.8 45.6 59.8 C 45.1 59.4 44.2 58.6 43.7 58.1 C 58.2 50.8 72.6 43.3 87.1 35.9 C 89.2 37.7 91.6 39.1 94.2 39.9 C 94.8 38.4 95.4 36.9 96.0 35.4 Z" />
<path fill="#0a8e80" stroke="#0a8e80" stroke-width="0.09375" opacity="1.00" d=" M 186.0 39.3 C 199.2 45.6 211.9 52.7 225.0 59.2 C 222.3 61.5 219.8 63.9 217.5 66.6 C 215.4 65.6 213.3 64.6 211.3 63.5 C 206.7 60.6 202.2 57.4 197.6 54.4 C 190.2 49.5 181.8 46.2 173.9 42.2 C 178.0 41.8 182.1 40.6 186.0 39.3 Z" />
<path fill="#176590" stroke="#176590" stroke-width="0.09375" opacity="1.00" d=" M 132.4 53.3 C 135.6 48.5 141.8 46.6 147.2 48.0 C 149.4 48.8 150.4 51.1 151.7 52.8 C 157.0 51.5 161.7 48.9 166.8 47.0 C 166.5 49.4 165.9 51.9 166.3 54.3 C 168.2 58.3 172.3 62.0 177.0 61.1 C 180.8 61.0 183.1 57.5 185.3 54.8 C 185.1 56.9 184.1 59.4 185.9 61.1 C 190.3 65.3 197.2 65.2 202.0 69.0 C 207.8 73.5 214.4 77.2 218.5 83.5 C 220.1 85.8 220.3 88.7 221.2 91.3 C 222.0 93.5 224.2 95.1 224.3 97.6 C 224.6 101.7 224.8 105.8 225.9 109.8 C 224.5 111.5 223.2 113.2 221.9 114.9 C 224.2 115.1 226.6 114.9 228.9 114.6 C 228.9 115.3 228.9 116.1 229.0 116.8 C 227.2 117.4 225.3 117.7 223.8 118.7 C 222.5 120.9 221.9 123.3 220.5 125.4 C 219.3 125.4 218.0 125.3 216.7 125.2 C 220.2 115.3 223.8 104.1 219.2 93.9 C 217.0 88.5 214.4 83.0 210.2 78.8 C 205.3 74.2 200.0 69.5 193.4 67.5 C 186.4 64.4 178.7 63.9 171.2 62.8 C 168.1 62.2 165.0 61.8 161.9 61.5 C 156.8 61.1 153.0 56.9 147.9 56.2 C 145.4 55.9 142.8 56.3 140.3 56.5 C 134.0 57.2 127.5 56.4 121.5 58.6 C 118.1 60.0 114.6 58.4 111.4 57.3 C 111.1 60.1 110.7 62.9 110.4 65.6 C 107.7 66.6 104.4 67.0 102.2 69.0 C 101.9 71.5 102.4 73.9 102.6 76.3 C 98.5 76.7 94.3 77.1 90.2 77.5 C 90.5 75.2 90.9 72.9 91.3 70.6 C 87.8 72.2 85.2 69.5 83.0 67.2 C 83.4 71.3 84.2 75.4 83.5 79.6 C 83.3 81.3 81.8 82.7 80.1 82.7 C 78.7 82.1 77.4 81.3 76.1 80.6 C 75.5 82.6 75.0 84.7 74.4 86.7 C 72.8 85.5 71.2 84.2 69.6 83.0 C 69.5 88.0 71.2 93.2 69.2 98.0 C 68.7 99.3 68.2 100.5 67.7 101.7 C 64.8 101.5 61.9 101.4 59.0 101.3 C 58.8 106.8 60.8 112.8 57.8 117.9 C 55.3 120.2 51.9 121.2 48.9 122.7 C 52.0 126.8 54.1 132.2 52.3 137.3 C 51.0 138.6 49.4 139.5 47.9 140.6 C 50.5 145.1 54.7 148.8 56.1 153.9 C 53.3 156.8 48.5 156.7 45.5 159.4 C 43.9 163.4 43.2 167.7 42.7 172.0 C 41.9 171.0 41.1 170.0 40.3 169.0 C 41.7 165.2 43.6 161.4 43.9 157.2 C 43.1 155.7 42.0 154.5 41.0 153.2 C 41.9 151.4 42.8 149.6 43.7 147.8 C 45.1 147.3 46.4 146.8 47.8 146.2 C 46.4 140.9 43.1 136.4 40.0 131.9 C 37.3 126.6 36.3 120.7 36.2 114.9 C 39.4 113.9 42.4 112.5 44.4 109.7 C 41.8 109.3 39.2 110.2 36.9 111.5 C 37.5 108.9 37.9 106.3 38.9 103.9 C 40.6 101.0 43.7 99.3 45.2 96.4 C 45.9 94.2 45.8 92.0 45.8 89.8 C 44.3 89.3 42.7 88.8 41.2 88.3 C 41.2 87.0 41.1 85.7 41.1 84.4 C 47.3 81.9 53.9 80.1 59.8 76.8 C 62.0 75.7 63.4 73.8 64.8 71.9 C 63.4 70.0 59.5 68.4 61.6 65.8 C 64.1 61.7 67.3 57.7 71.7 55.9 C 75.3 55.7 78.6 57.5 82.0 58.5 C 83.5 57.5 85.1 56.5 86.6 55.5 C 87.7 56.8 88.9 58.1 90.0 59.5 C 95.2 58.8 100.5 57.8 105.8 57.4 C 109.7 57.4 111.8 53.1 115.7 52.8 C 121.2 52.2 126.8 52.9 132.4 53.3 Z" />
<path fill="#195b8e" stroke="#195b8e" stroke-width="0.09375" opacity="1.00" d=" M 140.3 56.5 C 142.8 56.3 145.4 55.9 147.9 56.2 C 153.0 56.9 156.8 61.1 161.9 61.5 C 165.0 61.8 168.1 62.2 171.2 62.8 C 163.9 63.6 155.8 63.7 149.9 68.9 C 144.9 69.7 140.0 70.8 135.2 72.6 C 133.8 71.9 132.4 71.1 131.0 70.4 C 129.4 72.2 128.0 74.3 125.9 75.5 C 122.7 75.3 119.2 73.3 116.2 75.2 C 116.2 77.4 118.3 78.6 119.5 80.1 C 112.3 81.1 105.2 85.1 97.8 82.8 C 94.5 85.7 90.8 88.2 87.6 91.3 C 84.7 95.0 84.6 100.6 80.8 103.7 C 78.2 104.9 75.2 104.3 72.4 104.4 C 71.7 107.4 70.6 110.3 68.7 112.7 C 66.5 115.3 66.3 119.1 68.0 122.0 C 70.4 124.0 74.2 123.4 76.4 125.5 C 76.9 130.1 75.4 134.8 75.6 139.4 C 73.3 139.0 71.0 138.3 68.6 138.7 C 66.7 139.3 65.1 140.7 63.4 141.9 C 64.2 144.8 65.1 147.7 65.4 150.7 C 65.7 153.2 64.1 155.3 63.0 157.4 C 57.1 157.9 51.2 158.2 45.5 159.4 C 48.5 156.7 53.3 156.8 56.1 153.9 C 54.7 148.8 50.5 145.1 47.9 140.6 C 49.4 139.5 51.0 138.6 52.3 137.3 C 54.1 132.2 52.0 126.8 48.9 122.7 C 51.9 121.2 55.3 120.2 57.8 117.9 C 60.8 112.8 58.8 106.8 59.0 101.3 C 61.9 101.4 64.8 101.5 67.7 101.7 C 68.2 100.5 68.7 99.3 69.2 98.0 C 71.2 93.2 69.5 88.0 69.6 83.0 C 71.2 84.2 72.8 85.5 74.4 86.7 C 75.0 84.7 75.5 82.6 76.1 80.6 C 77.4 81.3 78.7 82.1 80.1 82.7 C 81.8 82.7 83.3 81.3 83.5 79.6 C 84.2 75.4 83.4 71.3 83.0 67.2 C 85.2 69.5 87.8 72.2 91.3 70.6 C 90.9 72.9 90.5 75.2 90.2 77.5 C 94.3 77.1 98.5 76.7 102.6 76.3 C 102.4 73.9 101.9 71.5 102.2 69.0 C 104.4 67.0 107.7 66.6 110.4 65.6 C 110.7 62.9 111.1 60.1 111.4 57.3 C 114.6 58.4 118.1 60.0 121.5 58.6 C 127.5 56.4 134.0 57.2 140.3 56.5 Z" />
<path fill="#059a7a" stroke="#059a7a" stroke-width="0.09375" opacity="1.00" d=" M 6.9 64.9 C 11.0 61.3 16.4 58.8 22.0 59.3 C 26.2 59.1 29.2 62.5 33.0 63.6 C 37.0 62.7 40.1 59.8 43.7 58.1 C 44.2 58.6 45.1 59.4 45.6 59.8 C 41.4 62.8 37.7 66.4 34.2 70.2 C 31.5 73.1 27.7 75.0 25.5 78.3 C 23.0 83.3 22.4 88.8 22.1 94.3 C 21.3 94.2 20.5 94.1 19.8 94.1 C 18.7 95.8 17.7 97.6 16.7 99.4 C 16.3 97.5 15.8 95.6 15.4 93.7 C 12.7 92.0 9.8 90.5 7.3 88.7 C 4.1 86.6 2.3 82.8 2.5 79.1 C 2.6 74.1 2.9 68.4 6.9 64.9 Z" />
<path fill="#0fa082" stroke="#0fa082" stroke-width="0.09375" opacity="1.00" d=" M 217.5 66.6 C 219.8 63.9 222.3 61.5 225.0 59.2 C 227.5 60.6 229.8 62.4 232.5 63.3 C 236.8 64.5 240.0 60.6 244.0 59.9 C 249.4 58.5 254.5 61.4 258.9 64.4 C 255.4 65.7 252.9 68.3 251.1 71.5 C 245.2 73.2 238.8 74.5 232.6 73.0 C 231.5 73.0 230.4 73.1 229.3 73.1 C 225.5 70.7 221.5 68.5 217.5 66.6 Z" />
<path fill="#165179" stroke="#165179" stroke-width="0.09375" opacity="1.00" d=" M 149.9 68.9 C 155.8 63.7 163.9 63.6 171.2 62.8 C 178.7 63.9 186.4 64.4 193.4 67.5 C 200.0 69.5 205.3 74.2 210.2 78.8 C 214.4 83.0 217.0 88.5 219.2 93.9 C 218.0 92.2 216.6 90.6 215.1 89.0 C 210.8 82.5 205.2 76.7 198.8 72.3 C 188.8 67.8 177.7 64.6 166.7 65.6 C 157.9 66.2 150.4 71.5 143.4 76.3 C 143.6 75.1 143.9 73.8 144.1 72.6 C 146.1 71.5 148.0 70.2 149.9 68.9 Z" />
<path fill="#1c3a5b" stroke="#1c3a5b" stroke-width="0.09375" opacity="1.00" d=" M 166.7 65.6 C 177.7 64.6 188.8 67.8 198.8 72.3 C 205.2 76.7 210.8 82.5 215.1 89.0 L 214.4 88.5 C 210.4 86.2 207.2 82.8 203.9 79.6 C 202.1 77.2 200.2 74.8 197.3 73.8 C 186.3 69.4 174.3 64.8 162.4 68.3 C 152.4 71.3 143.6 78.2 137.9 86.9 C 133.8 93.1 133.5 100.9 134.0 108.0 C 134.3 112.7 136.1 117.1 136.0 121.8 C 134.5 124.3 132.1 126.1 129.9 127.9 C 124.9 131.9 120.0 136.1 115.1 140.1 C 110.4 143.9 104.9 146.4 100.4 150.4 C 98.4 151.9 96.6 154.0 94.0 154.2 C 88.8 153.8 84.5 149.7 79.1 150.1 C 75.1 150.4 70.7 152.9 70.0 157.1 C 69.7 161.0 73.3 164.4 71.7 168.4 C 68.5 165.9 65.6 162.6 61.6 161.5 C 58.1 160.7 54.4 160.8 51.1 162.1 C 47.6 163.4 45.9 168.0 47.7 171.3 C 50.0 175.4 53.8 178.6 56.7 182.3 C 58.9 185.0 60.4 188.1 61.9 191.1 C 57.9 186.5 54.1 181.6 50.0 177.0 C 47.9 174.6 45.7 172.0 45.4 168.7 C 45.1 165.7 46.1 162.3 49.0 161.0 C 54.2 158.4 60.2 159.7 65.8 160.0 C 68.0 156.1 70.3 152.4 72.9 148.8 C 76.6 148.0 80.5 147.7 84.2 148.9 C 87.4 149.7 90.4 151.5 93.8 151.8 C 96.5 150.7 98.6 148.6 100.9 146.9 C 105.6 143.2 111.2 140.7 115.7 136.7 C 119.4 133.4 123.0 129.9 126.7 126.7 C 129.0 124.6 131.6 122.6 132.8 119.7 C 133.1 112.8 129.9 106.0 131.0 99.0 C 132.4 90.4 136.2 81.7 143.4 76.3 C 150.4 71.5 157.9 66.2 166.7 65.6 Z" />
<path fill="#029777" stroke="#029777" stroke-width="0.09375" opacity="1.00" d=" M 258.9 64.4 C 261.5 66.2 263.1 69.1 264.2 72.0 C 264.4 76.6 264.3 81.4 263.0 85.8 C 259.9 89.5 255.1 90.7 251.6 93.9 C 251.3 94.3 250.8 95.0 250.5 95.3 C 247.0 91.6 245.7 86.4 242.6 82.4 C 240.4 79.5 236.8 78.3 233.5 77.2 C 233.2 75.8 232.9 74.4 232.6 73.0 C 238.8 74.5 245.2 73.2 251.1 71.5 C 252.9 68.3 255.4 65.7 258.9 64.4 Z" />
<path fill="#182f3a" stroke="#182f3a" stroke-width="0.09375" opacity="1.00" d=" M 162.4 68.3 C 174.3 64.8 186.3 69.4 197.3 73.8 C 200.2 74.8 202.1 77.2 203.9 79.6 C 201.6 78.8 199.3 78.1 197.0 77.0 C 191.5 72.5 184.3 71.0 177.5 69.6 C 170.5 68.2 163.0 69.2 156.8 72.8 C 150.5 76.2 144.2 80.2 140.5 86.5 C 135.1 94.9 134.7 105.5 137.1 114.9 C 137.6 118.1 139.1 121.9 136.7 124.7 C 134.3 127.7 131.1 129.8 128.1 132.1 C 121.6 137.0 115.5 142.4 108.4 146.4 C 103.3 149.2 99.7 154.6 93.9 156.1 C 88.8 155.5 84.4 151.7 79.1 152.1 C 75.8 152.2 72.5 154.7 72.3 158.1 C 72.9 161.8 75.7 164.9 76.0 168.7 C 74.8 170.1 73.2 171.1 71.6 172.1 C 70.9 171.3 70.2 170.6 69.5 169.8 C 65.5 166.9 61.6 162.4 56.1 163.2 C 53.3 163.3 50.1 165.0 50.0 168.1 C 49.8 172.6 53.7 175.6 56.3 178.7 C 60.3 182.9 62.8 188.1 66.5 192.5 C 68.5 195.1 72.0 194.7 74.8 195.0 L 75.6 194.7 C 76.1 195.8 76.6 196.9 77.2 198.0 C 74.3 197.8 71.3 198.0 68.5 197.4 C 65.6 196.2 63.8 193.5 61.9 191.1 C 60.4 188.1 58.9 185.0 56.7 182.3 C 53.8 178.6 50.0 175.4 47.7 171.3 C 45.9 168.0 47.6 163.4 51.1 162.1 C 54.4 160.8 58.1 160.7 61.6 161.5 C 65.6 162.6 68.5 165.9 71.7 168.4 C 73.3 164.4 69.7 161.0 70.0 157.1 C 70.7 152.9 75.1 150.4 79.1 150.1 C 84.5 149.7 88.8 153.8 94.0 154.2 C 96.6 154.0 98.4 151.9 100.4 150.4 C 104.9 146.4 110.4 143.9 115.1 140.1 C 120.0 136.1 124.9 131.9 129.9 127.9 C 132.1 126.1 134.5 124.3 136.0 121.8 C 136.1 117.1 134.3 112.7 134.0 108.0 C 133.5 100.9 133.8 93.1 137.9 86.9 C 143.6 78.2 152.4 71.3 162.4 68.3 Z" />
<path fill="#20528b" stroke="#20528b" stroke-width="0.09375" opacity="1.00" d=" M 135.2 72.6 C 140.0 70.8 144.9 69.7 149.9 68.9 C 148.0 70.2 146.1 71.5 144.1 72.6 C 140.5 74.6 136.7 76.8 134.3 80.3 C 132.3 83.1 130.6 86.0 129.0 89.0 C 126.6 93.5 127.5 99.6 122.8 102.7 C 120.1 99.3 121.4 94.8 121.7 90.8 C 119.0 89.3 116.3 87.1 113.0 87.2 C 110.9 87.5 108.9 88.5 107.0 89.3 C 105.8 88.7 104.5 88.1 103.2 87.4 C 99.4 89.4 94.7 91.4 93.9 96.1 C 96.6 96.9 100.2 96.6 102.0 99.2 C 102.5 102.4 100.0 104.9 97.7 106.8 C 94.9 109.1 93.4 112.5 91.8 115.7 C 89.8 116.4 87.5 116.6 85.9 118.1 C 83.9 120.6 86.1 123.3 87.5 125.5 C 90.7 130.1 92.1 135.6 94.4 140.6 C 95.1 142.4 96.3 144.4 95.4 146.3 C 94.8 148.2 92.8 150.5 90.7 149.3 C 84.9 146.7 78.6 144.6 72.2 146.3 C 69.0 146.8 68.2 150.4 66.9 152.9 C 66.2 154.3 65.7 155.7 65.1 157.1 C 64.4 157.2 63.7 157.3 63.0 157.4 C 64.1 155.3 65.7 153.2 65.4 150.7 C 65.1 147.7 64.2 144.8 63.4 141.9 C 65.1 140.7 66.7 139.3 68.6 138.7 C 71.0 138.3 73.3 139.0 75.6 139.4 C 75.4 134.8 76.9 130.1 76.4 125.5 C 74.2 123.4 70.4 124.0 68.0 122.0 C 66.3 119.1 66.5 115.3 68.7 112.7 C 70.6 110.3 71.7 107.4 72.4 104.4 C 75.2 104.3 78.2 104.9 80.8 103.7 C 84.6 100.6 84.7 95.0 87.6 91.3 C 90.8 88.2 94.5 85.7 97.8 82.8 C 105.2 85.1 112.3 81.1 119.5 80.1 C 118.3 78.6 116.2 77.4 116.2 75.2 C 119.2 73.3 122.7 75.3 125.9 75.5 C 128.0 74.3 129.4 72.2 131.0 70.4 C 132.4 71.1 133.8 71.9 135.2 72.6 Z" />
<path fill="#181d1c" stroke="#181d1c" stroke-width="0.09375" opacity="1.00" d=" M 156.8 72.8 C 163.0 69.2 170.5 68.2 177.5 69.6 C 184.3 71.0 191.5 72.5 197.0 77.0 C 192.1 74.7 186.6 74.0 181.1 74.3 C 181.2 73.7 181.4 72.6 181.5 72.0 C 174.6 71.7 167.5 71.5 161.0 74.0 C 154.2 76.5 147.2 79.9 143.1 86.0 C 138.1 93.0 136.8 102.1 138.9 110.3 C 139.7 114.4 141.6 118.7 140.0 122.8 C 138.3 127.5 134.1 130.5 130.3 133.3 C 124.3 137.3 118.6 141.7 112.9 145.9 C 106.7 150.4 101.6 156.2 94.5 159.4 C 92.9 159.7 91.2 159.9 89.5 160.2 C 89.0 159.2 88.5 158.2 87.9 157.2 C 84.6 154.0 79.7 155.1 75.8 156.1 C 76.2 160.6 78.4 164.6 79.2 168.9 C 79.2 172.4 75.2 172.9 72.6 173.1 L 72.0 172.5 L 71.6 172.1 C 73.2 171.1 74.8 170.1 76.0 168.7 C 75.7 164.9 72.9 161.8 72.3 158.1 C 72.5 154.7 75.8 152.2 79.1 152.1 C 84.4 151.7 88.8 155.5 93.9 156.1 C 99.7 154.6 103.3 149.2 108.4 146.4 C 115.5 142.4 121.6 137.0 128.1 132.1 C 131.1 129.8 134.3 127.7 136.7 124.7 C 139.1 121.9 137.6 118.1 137.1 114.9 C 134.7 105.5 135.1 94.9 140.5 86.5 C 144.2 80.2 150.5 76.2 156.8 72.8 Z" />
<path fill="#0d0903" stroke="#0d0903" stroke-width="0.09375" opacity="1.00" d=" M 161.0 74.0 C 167.5 71.5 174.6 71.7 181.5 72.0 C 181.4 72.6 181.2 73.7 181.1 74.3 C 177.6 74.5 174.3 75.5 171.1 77.0 C 167.8 78.5 164.7 80.6 162.0 82.9 C 158.0 86.2 154.2 90.0 151.7 94.6 C 148.9 102.6 148.3 111.9 151.4 119.9 C 150.2 123.3 149.1 126.9 146.6 129.6 C 138.1 138.3 127.3 144.2 118.5 152.5 C 112.5 157.5 106.5 162.6 100.1 167.1 C 98.0 164.8 96.2 162.1 94.5 159.4 C 101.6 156.2 106.7 150.4 112.9 145.9 C 118.6 141.7 124.3 137.3 130.3 133.3 C 134.1 130.5 138.3 127.5 140.0 122.8 C 141.6 118.7 139.7 114.4 138.9 110.3 C 136.8 102.1 138.1 93.0 143.1 86.0 C 147.2 79.9 154.2 76.5 161.0 74.0 Z" />
<path fill="#012a1f" stroke="#012a1f" stroke-width="0.09375" opacity="0.27" d=" M 264.2 72.0 C 264.8 73.5 265.4 74.9 266.0 76.4 L 266.0 81.8 C 265.0 83.2 264.0 84.5 263.0 85.8 C 264.3 81.4 264.4 76.6 264.2 72.0 Z" />
<path fill="#1f4580" stroke="#1f4580" stroke-width="0.09375" opacity="1.00" d=" M 134.3 80.3 C 136.7 76.8 140.5 74.6 144.1 72.6 C 143.9 73.8 143.6 75.1 143.4 76.3 C 136.2 81.7 132.4 90.4 131.0 99.0 C 129.9 106.0 133.1 112.8 132.8 119.7 C 131.6 122.6 129.0 124.6 126.7 126.7 C 123.0 129.9 119.4 133.4 115.7 136.7 C 111.2 140.7 105.6 143.2 100.9 146.9 C 98.6 148.6 96.5 150.7 93.8 151.8 C 90.4 151.5 87.4 149.7 84.2 148.9 C 80.5 147.7 76.6 148.0 72.9 148.8 C 70.8 150.0 68.8 151.4 66.9 152.9 C 68.2 150.4 69.0 146.8 72.2 146.3 C 78.6 144.6 84.9 146.7 90.7 149.3 C 92.8 150.5 94.8 148.2 95.4 146.3 C 96.3 144.4 95.1 142.4 94.4 140.6 C 92.1 135.6 90.7 130.1 87.5 125.5 C 86.1 123.3 83.9 120.6 85.9 118.1 C 87.5 116.6 89.8 116.4 91.8 115.7 C 93.4 112.5 94.9 109.1 97.7 106.8 C 100.0 104.9 102.5 102.4 102.0 99.2 C 100.2 96.6 96.6 96.9 93.9 96.1 C 94.7 91.4 99.4 89.4 103.2 87.4 C 104.5 88.1 105.8 88.7 107.0 89.3 C 108.9 88.5 110.9 87.5 113.0 87.2 C 116.3 87.1 119.0 89.3 121.7 90.8 C 121.4 94.8 120.1 99.3 122.8 102.7 C 127.5 99.6 126.6 93.5 129.0 89.0 C 130.6 86.0 132.3 83.1 134.3 80.3 Z" />
<path fill="#0d9281" stroke="#0d9281" stroke-width="0.09375" opacity="1.00" d=" M 229.3 73.1 C 230.4 73.1 231.5 73.0 232.6 73.0 C 232.9 74.4 233.2 75.8 233.5 77.2 C 236.8 78.3 240.4 79.5 242.6 82.4 C 245.7 86.4 247.0 91.6 250.5 95.3 C 251.1 118.2 250.5 141.1 250.8 164.0 C 250.7 167.4 251.1 170.9 250.1 174.2 C 247.6 176.8 243.9 177.9 241.3 180.4 C 240.4 183.0 240.5 185.7 240.4 188.4 C 239.1 188.8 237.8 189.3 236.5 189.7 C 236.5 192.2 236.9 194.8 236.1 197.2 C 233.5 201.9 227.0 201.8 223.8 205.7 C 222.5 207.1 224.3 208.5 224.8 209.8 C 203.4 220.9 182.0 232.1 160.5 243.1 C 160.1 242.0 159.8 240.8 159.5 239.6 C 157.5 239.3 155.4 238.4 153.4 238.9 C 148.2 240.5 143.9 243.9 139.0 245.9 C 136.6 245.3 134.5 243.8 132.0 243.3 C 129.0 243.5 126.2 244.9 123.2 244.7 C 120.9 244.5 118.7 244.0 116.5 243.5 C 115.8 245.0 115.2 246.6 114.6 248.1 C 112.7 246.7 110.7 245.4 108.6 244.3 C 86.8 233.2 65.2 221.8 43.5 210.7 C 42.8 206.9 41.3 202.6 43.8 199.1 C 48.2 201.5 52.7 203.6 57.0 206.0 C 63.3 209.9 70.1 212.8 76.6 216.3 C 82.9 219.5 89.0 223.3 95.7 225.7 C 102.6 229.1 109.1 233.2 116.2 236.2 C 120.6 237.6 124.8 234.7 128.5 232.6 C 128.9 231.6 129.2 230.7 129.6 229.7 C 132.2 230.1 134.8 230.2 137.4 229.9 C 137.9 230.9 138.3 231.9 138.8 232.9 C 142.9 236.0 148.7 238.2 153.5 235.5 C 159.8 232.1 166.0 228.7 172.4 225.6 C 178.2 223.8 183.5 220.5 188.9 217.8 C 193.3 215.5 197.7 213.2 202.0 210.6 C 208.7 206.6 216.0 203.5 222.9 199.8 C 226.1 198.1 228.9 195.3 229.5 191.7 C 230.0 188.9 227.1 187.2 225.7 185.2 C 226.9 183.4 227.9 181.3 228.7 179.2 C 231.1 179.7 233.5 180.1 235.8 179.2 C 238.2 177.7 241.9 176.3 241.6 172.9 C 241.9 164.6 241.4 156.2 241.9 147.8 C 242.8 138.0 242.8 128.0 241.9 118.2 C 241.4 111.2 242.0 104.1 241.6 97.1 C 241.4 94.7 240.8 91.9 238.6 90.5 C 236.2 90.1 233.8 90.4 231.3 90.4 C 230.4 88.1 229.1 85.9 227.5 84.0 C 229.3 80.6 229.7 76.8 229.3 73.1 Z" />
<path fill="#cb8340" stroke="#cb8340" stroke-width="0.09375" opacity="1.00" d=" M 171.1 77.0 C 174.3 75.5 177.6 74.5 181.1 74.3 C 186.6 74.0 192.1 74.7 197.0 77.0 C 199.3 78.1 201.6 78.8 203.9 79.6 C 207.2 82.8 210.4 86.2 214.4 88.5 C 214.7 89.6 215.0 90.7 215.3 91.7 C 215.2 93.8 215.1 95.9 215.2 98.0 C 211.2 89.9 205.3 80.2 195.2 79.7 C 187.4 77.4 179.1 77.2 171.1 77.0 Z" />
<path fill="#dfa471" stroke="#dfa471" stroke-width="0.09375" opacity="1.00" d=" M 171.1 77.0 C 179.1 77.2 187.4 77.4 195.2 79.7 C 193.4 79.9 191.7 80.1 190.0 80.4 C 190.6 81.2 191.2 82.1 191.9 83.0 C 185.9 82.0 179.5 81.3 173.8 83.8 C 169.5 85.5 165.4 87.9 161.9 90.9 C 161.2 90.1 160.4 89.4 159.8 88.5 C 160.8 86.5 162.3 84.7 163.6 82.9 C 163.2 82.9 162.4 82.9 162.0 82.9 C 164.7 80.6 167.8 78.5 171.1 77.0 Z" />
<path fill="#e9bc7f" stroke="#e9bc7f" stroke-width="0.09375" opacity="1.00" d=" M 190.0 80.4 C 191.7 80.1 193.4 79.9 195.2 79.7 C 205.3 80.2 211.2 89.9 215.2 98.0 C 217.7 105.8 216.6 114.5 212.3 121.4 C 207.9 128.1 200.7 132.4 193.3 135.2 C 194.2 133.9 195.1 132.6 196.1 131.4 C 194.8 131.4 193.5 131.4 192.2 131.4 C 193.1 130.2 194.1 129.0 195.1 127.9 C 202.1 124.7 208.5 119.0 210.1 111.1 C 211.6 105.7 213.0 99.4 209.6 94.5 C 208.1 91.5 204.6 90.9 201.8 89.8 C 201.3 89.4 200.3 88.8 199.8 88.4 C 197.9 87.0 195.9 85.7 193.9 84.4 C 193.4 84.1 192.4 83.4 191.9 83.0 C 191.2 82.1 190.6 81.2 190.0 80.4 Z" />
<path fill="#b67745" stroke="#b67745" stroke-width="0.09375" opacity="1.00" d=" M 173.8 83.8 C 179.5 81.3 185.9 82.0 191.9 83.0 C 192.4 83.4 193.4 84.1 193.9 84.4 C 188.8 84.2 183.5 84.1 178.5 85.5 C 174.1 86.4 170.4 89.2 167.0 92.0 C 164.5 94.1 161.7 96.5 161.5 100.0 C 160.8 106.0 160.0 112.2 161.7 118.1 C 163.7 121.7 166.7 124.7 170.0 127.2 C 175.1 129.4 180.6 130.2 186.1 130.0 C 179.0 132.2 171.9 129.2 164.9 128.0 C 163.5 127.2 162.2 126.2 160.9 125.2 C 159.5 122.1 158.3 119.0 157.1 115.9 C 155.9 107.5 155.3 97.4 161.9 90.9 C 165.4 87.9 169.5 85.5 173.8 83.8 Z" />
<path fill="#eac698" stroke="#eac698" stroke-width="0.09375" opacity="1.00" d=" M 151.7 94.6 C 154.2 90.0 158.0 86.2 162.0 82.9 C 162.4 82.9 163.2 82.9 163.6 82.9 C 162.3 84.7 160.8 86.5 159.8 88.5 C 160.4 89.4 161.2 90.1 161.9 90.9 C 155.3 97.4 155.9 107.5 157.1 115.9 C 156.9 116.8 156.7 118.4 156.5 119.3 C 150.7 112.4 154.1 102.7 151.7 94.6 Z" />
<path fill="#1b2a3a" stroke="#1b2a3a" stroke-width="0.09375" opacity="1.00" d=" M 178.5 85.5 C 183.5 84.1 188.8 84.2 193.9 84.4 C 195.9 85.7 197.9 87.0 199.8 88.4 C 199.7 93.6 200.1 99.1 198.0 104.0 C 195.5 110.2 191.6 116.5 185.3 119.3 C 178.9 122.2 171.2 122.8 164.8 119.4 C 172.3 118.8 180.6 118.5 187.0 114.1 C 193.1 109.2 198.0 102.0 198.1 94.0 C 198.5 90.5 196.0 87.2 192.6 86.7 C 187.9 86.1 183.2 86.1 178.5 85.5 Z" />
<path fill="#1b5389" stroke="#1b5389" stroke-width="0.09375" opacity="1.00" d=" M 167.0 92.0 C 170.4 89.2 174.1 86.4 178.5 85.5 C 183.2 86.1 187.9 86.1 192.6 86.7 C 196.0 87.2 198.5 90.5 198.1 94.0 C 198.0 102.0 193.1 109.2 187.0 114.1 C 180.6 118.5 172.3 118.8 164.8 119.4 C 163.7 118.9 162.7 118.5 161.7 118.1 C 160.0 112.2 160.8 106.0 161.5 100.0 C 161.7 96.5 164.5 94.1 167.0 92.0 Z" />
<path fill="#120e05" stroke="#120e05" stroke-width="0.09375" opacity="1.00" d=" M 198.0 104.0 C 200.1 99.1 199.7 93.6 199.8 88.4 C 200.3 88.8 201.3 89.4 201.8 89.8 C 203.3 91.7 204.8 93.6 206.2 95.7 C 205.6 102.8 208.5 110.7 204.2 117.1 C 200.3 122.6 194.2 127.7 187.0 127.0 C 181.3 126.8 175.7 126.8 170.0 127.2 C 166.7 124.7 163.7 121.7 161.7 118.1 C 162.7 118.5 163.7 118.9 164.8 119.4 C 171.2 122.8 178.9 122.2 185.3 119.3 C 191.6 116.5 195.5 110.2 198.0 104.0 Z" />
<path fill="#565a4c" stroke="#565a4c" stroke-width="0.09375" opacity="1.00" d=" M 214.4 88.5 L 215.1 89.0 C 216.6 90.6 218.0 92.2 219.2 93.9 C 223.8 104.1 220.2 115.3 216.7 125.2 C 216.5 125.4 216.2 125.8 216.0 126.0 C 214.8 127.2 213.7 128.5 212.5 129.7 C 209.4 133.9 205.1 137.0 199.9 138.3 C 207.1 134.2 212.5 127.5 216.2 120.3 C 219.3 114.1 219.8 107.0 219.3 100.3 C 219.1 97.0 216.9 94.4 215.3 91.7 C 215.0 90.7 214.7 89.6 214.4 88.5 Z" />
<path fill="#dfa35f" stroke="#dfa35f" stroke-width="0.09375" opacity="1.00" d=" M 201.8 89.8 C 204.6 90.9 208.1 91.5 209.6 94.5 C 213.0 99.4 211.6 105.7 210.1 111.1 C 210.8 105.7 209.4 100.1 206.2 95.7 C 204.8 93.6 203.3 91.7 201.8 89.8 Z" />
<path fill="#b77941" stroke="#b77941" stroke-width="0.09375" opacity="1.00" d=" M 215.3 91.7 C 216.9 94.4 219.1 97.0 219.3 100.3 C 219.8 107.0 219.3 114.1 216.2 120.3 C 212.5 127.5 207.1 134.2 199.9 138.3 C 198.4 138.9 196.8 139.5 195.1 140.0 C 189.0 139.5 182.8 139.4 176.7 140.4 C 170.5 140.2 165.0 137.1 159.0 135.9 C 155.5 134.8 154.0 138.7 152.0 140.7 C 151.7 141.0 151.2 141.5 151.0 141.7 C 145.7 144.6 141.4 148.9 136.6 152.6 C 121.7 164.6 107.3 177.3 92.2 189.2 C 88.4 192.6 84.9 196.3 80.8 199.2 C 80.2 199.2 79.1 199.2 78.5 199.1 C 78.2 198.8 77.5 198.3 77.2 198.0 C 76.6 196.9 76.1 195.8 75.6 194.7 C 76.6 194.2 77.5 193.6 78.5 192.9 C 79.7 194.4 80.9 195.8 82.2 197.2 C 82.8 195.2 83.3 193.1 83.8 191.1 C 85.3 189.6 86.8 188.1 88.4 186.6 C 89.8 185.4 91.3 184.2 92.7 183.0 C 96.4 180.0 99.7 176.5 103.7 173.9 C 110.0 170.8 115.4 166.2 120.7 161.7 C 131.1 152.4 142.3 144.0 152.4 134.2 C 153.9 132.9 155.4 131.6 157.3 130.8 C 159.0 130.6 160.6 131.4 162.2 131.9 C 172.0 135.8 182.9 137.3 193.3 135.2 C 200.7 132.4 207.9 128.1 212.3 121.4 C 216.6 114.5 217.7 105.8 215.2 98.0 C 215.1 95.9 215.2 93.8 215.3 91.7 Z" />
<path fill="#059c79" stroke="#059c79" stroke-width="0.09375" opacity="1.00" d=" M 15.4 93.7 C 15.8 95.6 16.3 97.5 16.7 99.4 C 16.2 103.6 16.0 107.8 16.1 112.0 C 16.2 132.0 16.0 152.0 16.2 172.0 C 17.1 170.8 17.9 169.6 18.8 168.4 C 19.6 173.2 20.4 178.2 22.3 182.7 C 23.5 186.0 26.7 187.5 29.4 189.3 C 29.5 190.6 29.5 191.9 29.5 193.2 C 27.7 194.8 26.4 196.8 26.2 199.2 C 25.8 202.6 24.8 206.1 25.8 209.5 C 21.4 209.8 16.9 209.9 12.6 209.1 C 7.2 208.2 4.1 202.8 2.9 197.9 C 2.2 192.8 2.1 187.3 4.5 182.7 C 6.6 178.8 11.6 178.4 14.6 175.5 C 16.1 172.2 15.3 168.5 15.4 165.0 C 15.2 141.2 15.4 117.5 15.4 93.7 Z" />
<path fill="#049b78" stroke="#049b78" stroke-width="0.09375" opacity="1.00" d=" M 250.5 95.3 C 250.8 95.0 251.3 94.3 251.6 93.9 C 251.3 99.3 251.3 104.6 251.4 110.0 C 251.5 130.7 251.5 151.4 251.5 172.1 C 251.3 176.7 256.4 177.7 259.5 179.7 C 264.4 182.5 264.6 189.0 264.4 194.1 C 264.5 199.6 260.5 204.2 255.9 206.9 C 252.4 209.2 248.0 208.8 244.0 208.7 C 240.1 208.7 237.2 204.9 233.3 205.5 C 230.2 206.3 227.6 208.3 224.8 209.8 C 224.3 208.5 222.5 207.1 223.8 205.7 C 227.0 201.8 233.5 201.9 236.1 197.2 C 236.9 194.8 236.5 192.2 236.5 189.7 C 237.8 189.3 239.1 188.8 240.4 188.4 C 240.5 185.7 240.4 183.0 241.3 180.4 C 243.9 177.9 247.6 176.8 250.1 174.2 C 251.1 170.9 250.7 167.4 250.8 164.0 C 250.5 141.1 251.1 118.2 250.5 95.3 Z" />
<path fill="#e7b376" stroke="#e7b376" stroke-width="0.09375" opacity="1.00" d=" M 151.4 119.9 C 148.3 111.9 148.9 102.6 151.7 94.6 C 154.1 102.7 150.7 112.4 156.5 119.3 C 156.7 118.4 156.9 116.8 157.1 115.9 C 158.3 119.0 159.5 122.1 160.9 125.2 C 159.2 123.8 157.4 122.4 155.6 121.0 C 154.9 122.7 154.2 124.3 153.5 126.0 C 152.9 124.0 152.2 121.9 151.4 119.9 Z" />
<path fill="#3c3534" stroke="#3c3534" stroke-width="0.09375" opacity="1.00" d=" M 206.2 95.7 C 209.4 100.1 210.8 105.7 210.1 111.1 C 208.5 119.0 202.1 124.7 195.1 127.9 C 192.1 128.6 189.1 129.3 186.1 130.0 C 180.6 130.2 175.1 129.4 170.0 127.2 C 175.7 126.8 181.3 126.8 187.0 127.0 C 194.2 127.7 200.3 122.6 204.2 117.1 C 208.5 110.7 205.6 102.8 206.2 95.7 Z" />
<path fill="#0c4857" stroke="#0c4857" stroke-width="0.09375" opacity="0.61" d=" M 238.1 109.0 C 239.3 112.0 240.1 115.1 240.6 118.3 C 240.9 118.3 241.6 118.2 241.9 118.2 C 242.8 128.0 242.8 138.0 241.9 147.8 C 241.6 147.8 240.9 147.7 240.5 147.7 C 240.1 150.9 239.8 154.2 238.9 157.3 C 237.0 164.9 232.1 171.5 230.7 179.3 C 232.4 179.3 234.1 179.3 235.8 179.2 C 233.5 180.1 231.1 179.7 228.7 179.2 C 231.5 171.5 235.3 164.2 237.3 156.2 C 241.8 140.8 240.1 124.6 238.1 109.0 Z" />
<path fill="#44372c" stroke="#44372c" stroke-width="0.09375" opacity="1.00" d=" M 151.4 119.9 C 152.2 121.9 152.9 124.0 153.5 126.0 L 153.1 126.8 C 150.1 131.1 145.6 134.2 141.4 137.4 C 136.6 140.8 132.0 144.6 127.3 148.3 C 118.6 154.7 111.4 163.1 102.0 168.6 C 101.5 168.2 100.6 167.4 100.1 167.1 C 106.5 162.6 112.5 157.5 118.5 152.5 C 127.3 144.2 138.1 138.3 146.6 129.6 C 149.1 126.9 150.2 123.3 151.4 119.9 Z" />
<path fill="#f1d3a2" stroke="#f1d3a2" stroke-width="0.09375" opacity="1.00" d=" M 153.5 126.0 C 154.2 124.3 154.9 122.7 155.6 121.0 C 157.4 122.4 159.2 123.8 160.9 125.2 C 162.2 126.2 163.5 127.2 164.9 128.0 C 172.8 133.7 183.1 133.0 192.2 131.4 C 193.5 131.4 194.8 131.4 196.1 131.4 C 195.1 132.6 194.2 133.9 193.3 135.2 C 182.9 137.3 172.0 135.8 162.2 131.9 C 160.6 131.4 159.0 130.6 157.3 130.8 C 155.4 131.6 153.9 132.9 152.4 134.2 C 152.3 131.7 152.5 129.2 153.1 126.8 L 153.5 126.0 Z" />
<path fill="#186491" stroke="#186491" stroke-width="0.09375" opacity="1.00" d=" M 212.5 129.7 C 213.7 128.5 214.8 127.2 216.0 126.0 C 218.0 129.1 219.2 132.7 220.2 136.2 C 221.6 140.6 225.0 143.9 227.2 147.8 C 228.4 149.9 227.8 152.5 227.8 154.8 C 229.2 155.4 230.6 156.1 232.1 156.7 C 228.1 160.0 223.0 161.4 218.7 164.1 C 220.2 165.6 221.6 167.1 223.1 168.5 C 219.4 171.3 215.7 174.4 213.6 178.7 C 211.9 182.1 211.5 186.2 209.4 189.5 C 205.5 191.4 200.8 189.7 196.8 191.4 C 195.7 193.1 195.3 195.2 194.3 197.0 C 193.2 197.1 192.0 197.1 190.8 197.1 C 190.0 199.2 189.4 201.3 188.2 203.2 C 185.1 204.1 182.0 201.7 178.8 201.9 C 177.5 202.5 176.4 203.3 175.2 204.1 C 178.8 205.6 182.6 206.7 186.4 207.6 C 184.2 209.7 181.9 211.7 179.2 213.1 C 175.0 215.1 171.1 217.9 166.5 219.0 C 166.0 217.4 165.5 215.8 164.6 214.3 C 162.5 213.7 160.1 213.7 158.0 212.8 C 156.6 211.9 155.5 210.6 154.3 209.5 C 151.9 211.4 149.0 211.0 146.5 209.5 C 144.4 213.4 144.2 218.0 144.4 222.4 C 143.1 219.7 141.5 217.3 139.9 214.8 C 138.7 217.3 137.5 219.7 136.3 222.2 C 133.7 216.7 128.0 212.1 121.7 212.4 C 119.6 212.2 118.9 214.4 117.9 215.7 C 116.8 214.0 115.9 212.1 114.3 210.7 C 111.1 209.0 107.3 209.3 104.1 207.7 C 101.8 206.4 99.8 204.5 97.8 202.8 C 94.0 205.1 90.4 207.6 86.9 210.3 C 84.7 207.7 82.8 204.9 80.4 202.5 C 76.1 201.4 72.3 204.3 68.3 205.2 C 63.8 202.7 60.4 198.4 59.7 193.1 C 61.4 195.6 62.6 198.4 64.8 200.4 C 69.2 202.9 74.1 200.2 78.5 199.1 C 79.1 199.2 80.2 199.2 80.8 199.2 C 82.5 199.2 84.4 199.1 85.8 197.9 C 89.9 194.6 93.5 190.7 97.7 187.5 C 102.9 190.7 108.2 193.9 112.3 198.6 C 110.4 199.7 108.6 200.9 106.8 202.0 C 108.9 202.6 110.9 203.2 113.0 203.8 C 114.0 201.4 115.0 199.0 116.0 196.7 C 120.9 199.8 125.5 203.7 130.9 206.0 C 133.1 207.0 135.1 205.2 137.0 204.5 C 137.8 205.7 138.7 207.0 139.5 208.3 C 144.4 206.6 147.0 201.9 149.7 197.9 C 151.5 200.3 153.1 202.9 155.4 204.7 C 159.8 205.9 165.7 203.1 166.3 198.3 C 167.1 194.9 167.5 190.9 170.7 188.8 C 174.9 186.3 179.4 183.8 184.3 184.1 C 184.4 186.1 184.5 188.1 184.6 190.1 C 185.5 187.2 186.4 184.3 187.3 181.3 C 190.0 181.0 192.9 181.0 195.4 179.9 C 197.9 178.2 199.7 175.5 200.6 172.7 C 200.8 169.1 199.2 165.8 199.2 162.3 C 201.0 157.7 206.1 155.8 208.6 151.7 C 209.6 150.0 210.3 148.1 211.1 146.3 C 212.2 147.8 213.3 149.3 214.4 150.8 C 215.1 147.6 216.8 144.9 219.5 142.9 C 217.4 141.2 215.2 139.6 213.6 137.4 C 212.6 135.0 212.8 132.3 212.5 129.7 Z" />
<path fill="#dda768" stroke="#dda768" stroke-width="0.09375" opacity="1.00" d=" M 141.4 137.4 C 145.6 134.2 150.1 131.1 153.1 126.8 C 152.5 129.2 152.3 131.7 152.4 134.2 C 142.3 144.0 131.1 152.4 120.7 161.7 C 115.4 166.2 110.0 170.8 103.7 173.9 C 101.7 172.6 99.4 172.0 97.0 172.0 C 98.7 170.8 100.3 169.7 102.0 168.6 C 111.4 163.1 118.6 154.7 127.3 148.3 C 132.0 144.6 136.6 140.8 141.4 137.4 Z" />
<path fill="#d69b58" stroke="#d69b58" stroke-width="0.09375" opacity="1.00" d=" M 164.9 128.0 C 171.9 129.2 179.0 132.2 186.1 130.0 C 189.1 129.3 192.1 128.6 195.1 127.9 C 194.1 129.0 193.1 130.2 192.2 131.4 C 183.1 133.0 172.8 133.7 164.9 128.0 Z" />
<path fill="#1d779b" stroke="#1d779b" stroke-width="0.09375" opacity="1.00" d=" M 30.7 130.7 C 33.9 130.1 36.9 131.3 40.0 131.9 C 43.1 136.4 46.4 140.9 47.8 146.2 C 46.4 146.8 45.1 147.3 43.7 147.8 C 39.9 149.2 36.0 152.0 31.8 151.2 C 29.5 148.3 27.8 145.0 24.9 142.6 C 24.7 140.5 24.4 138.4 24.1 136.2 C 26.1 134.1 27.9 131.5 30.7 130.7 Z" />
<path fill="#1b548b" stroke="#1b548b" stroke-width="0.09375" opacity="1.00" d=" M 199.9 138.3 C 205.1 137.0 209.4 133.9 212.5 129.7 C 212.8 132.3 212.6 135.0 213.6 137.4 C 215.2 139.6 217.4 141.2 219.5 142.9 C 216.8 144.9 215.1 147.6 214.4 150.8 C 213.3 149.3 212.2 147.8 211.1 146.3 C 210.3 148.1 209.6 150.0 208.6 151.7 C 206.1 155.8 201.0 157.7 199.2 162.3 C 199.2 165.8 200.8 169.1 200.6 172.7 C 199.7 175.5 197.9 178.2 195.4 179.9 C 192.9 181.0 190.0 181.0 187.3 181.3 C 186.4 184.3 185.5 187.2 184.6 190.1 C 184.5 188.1 184.4 186.1 184.3 184.1 C 179.4 183.8 174.9 186.3 170.7 188.8 C 167.5 190.9 167.1 194.9 166.3 198.3 C 165.7 203.1 159.8 205.9 155.4 204.7 C 153.1 202.9 151.5 200.3 149.7 197.9 C 147.0 201.9 144.4 206.6 139.5 208.3 C 138.7 207.0 137.8 205.7 137.0 204.5 C 135.1 205.2 133.1 207.0 130.9 206.0 C 125.5 203.7 120.9 199.8 116.0 196.7 C 115.0 199.0 114.0 201.4 113.0 203.8 C 110.9 203.2 108.9 202.6 106.8 202.0 C 108.6 200.9 110.4 199.7 112.3 198.6 C 108.2 193.9 102.9 190.7 97.7 187.5 C 103.5 183.1 108.8 178.1 114.9 174.0 C 117.8 172.8 120.6 171.1 123.0 169.0 C 124.3 168.2 125.6 166.4 127.3 167.4 C 128.6 169.2 129.6 171.3 131.0 173.0 C 133.6 174.4 136.7 174.6 139.6 175.3 C 143.0 175.9 146.7 177.4 150.2 176.3 C 153.4 175.3 154.7 171.8 157.3 169.9 C 158.9 169.8 160.6 170.1 162.2 170.0 C 164.4 167.5 165.2 164.0 167.6 161.6 C 170.3 160.1 173.6 159.8 176.3 158.2 C 177.7 155.3 174.5 152.4 175.2 149.4 C 176.1 145.9 179.4 143.8 182.3 142.0 C 183.9 141.8 185.6 141.7 187.2 141.6 C 190.0 141.6 192.6 140.9 195.1 140.0 C 196.8 139.5 198.4 138.9 199.9 138.3 Z" />
<path fill="#181d1c" stroke="#181d1c" stroke-width="0.09375" opacity="1.00" d=" M 152.0 140.7 C 154.0 138.7 155.5 134.8 159.0 135.9 C 165.0 137.1 170.5 140.2 176.7 140.4 C 180.2 140.8 183.7 141.4 187.2 141.6 C 185.6 141.7 183.9 141.8 182.3 142.0 C 181.8 142.1 180.9 142.2 180.4 142.2 C 173.9 141.7 167.4 140.7 161.1 138.8 C 157.9 137.8 154.7 139.3 152.0 140.7 Z" />
<path fill="#1d3b77" stroke="#1d3b77" stroke-width="0.09375" opacity="1.00" d=" M 152.0 140.7 C 154.7 139.3 157.9 137.8 161.1 138.8 C 167.4 140.7 173.9 141.7 180.4 142.2 C 173.8 144.3 167.0 144.8 160.1 145.2 C 162.2 150.0 163.7 155.2 162.2 160.4 C 160.9 158.7 159.6 157.0 158.2 155.3 C 155.9 157.3 153.7 159.4 151.5 161.6 C 143.6 160.6 135.8 163.3 127.9 162.7 C 133.6 157.8 139.7 153.3 145.6 148.6 C 147.9 146.8 149.5 144.2 151.0 141.7 C 151.2 141.5 151.7 141.0 152.0 140.7 Z" />
<path fill="#6a513b" stroke="#6a513b" stroke-width="0.09375" opacity="1.00" d=" M 176.7 140.4 C 182.8 139.4 189.0 139.5 195.1 140.0 C 192.6 140.9 190.0 141.6 187.2 141.6 C 183.7 141.4 180.2 140.8 176.7 140.4 Z" />
<path fill="#414a4e" stroke="#414a4e" stroke-width="0.09375" opacity="1.00" d=" M 136.6 152.6 C 141.4 148.9 145.7 144.6 151.0 141.7 C 149.5 144.2 147.9 146.8 145.6 148.6 C 139.7 153.3 133.6 157.8 127.9 162.7 C 123.4 166.3 119.0 170.0 114.9 174.0 C 108.8 178.1 103.5 183.1 97.7 187.5 C 93.5 190.7 89.9 194.6 85.8 197.9 C 84.4 199.1 82.5 199.2 80.8 199.2 C 84.9 196.3 88.4 192.6 92.2 189.2 C 107.3 177.3 121.7 164.6 136.6 152.6 Z" />
<path fill="#1e4581" stroke="#1e4581" stroke-width="0.09375" opacity="1.00" d=" M 180.4 142.2 C 180.9 142.2 181.8 142.1 182.3 142.0 C 179.4 143.8 176.1 145.9 175.2 149.4 C 174.5 152.4 177.7 155.3 176.3 158.2 C 173.6 159.8 170.3 160.1 167.6 161.6 C 165.2 164.0 164.4 167.5 162.2 170.0 C 160.6 170.1 158.9 169.8 157.3 169.9 C 154.7 171.8 153.4 175.3 150.2 176.3 C 146.7 177.4 143.0 175.9 139.6 175.3 C 136.7 174.6 133.6 174.4 131.0 173.0 C 129.6 171.3 128.6 169.2 127.3 167.4 C 125.6 166.4 124.3 168.2 123.0 169.0 C 120.6 171.1 117.8 172.8 114.9 174.0 C 119.0 170.0 123.4 166.3 127.9 162.7 C 135.8 163.3 143.6 160.6 151.5 161.6 C 153.7 159.4 155.9 157.3 158.2 155.3 C 159.6 157.0 160.9 158.7 162.2 160.4 C 163.7 155.2 162.2 150.0 160.1 145.2 C 167.0 144.8 173.8 144.3 180.4 142.2 Z" />
<path fill="#166e91" stroke="#166e91" stroke-width="0.09375" opacity="1.00" d=" M 24.9 142.6 C 27.8 145.0 29.5 148.3 31.8 151.2 C 36.0 152.0 39.9 149.2 43.7 147.8 C 42.8 149.6 41.9 151.4 41.0 153.2 C 42.0 154.5 43.1 155.7 43.9 157.2 C 43.6 161.4 41.7 165.2 40.3 169.0 C 41.1 170.0 41.9 171.0 42.7 172.0 C 48.3 179.2 54.8 185.5 59.7 193.1 C 60.4 198.4 63.8 202.7 68.3 205.2 C 72.3 204.3 76.1 201.4 80.4 202.5 C 82.8 204.9 84.7 207.7 86.9 210.3 C 90.4 207.6 94.0 205.1 97.8 202.8 C 99.8 204.5 101.8 206.4 104.1 207.7 C 107.3 209.3 111.1 209.0 114.3 210.7 C 115.9 212.1 116.8 214.0 117.9 215.7 C 118.9 214.4 119.6 212.2 121.7 212.4 C 128.0 212.1 133.7 216.7 136.3 222.2 C 137.5 219.7 138.7 217.3 139.9 214.8 C 141.5 217.3 143.1 219.7 144.4 222.4 C 144.5 224.4 144.4 226.4 144.4 228.4 C 142.0 228.8 139.7 229.4 137.4 229.9 C 134.8 230.2 132.2 230.1 129.6 229.7 C 121.6 227.8 113.2 227.9 105.2 225.9 C 92.5 223.1 80.8 217.0 69.6 210.6 C 63.7 207.3 58.5 202.8 52.9 199.1 C 48.3 195.1 44.7 190.2 41.0 185.5 C 39.3 183.4 37.6 181.4 36.1 179.3 C 35.0 176.4 33.9 173.4 32.4 170.7 C 29.9 165.9 28.7 160.5 26.6 155.5 C 25.2 151.4 25.0 147.0 24.9 142.6 Z" />
<path fill="#135471" stroke="#135471" stroke-width="0.09375" opacity="1.00" d=" M 66.9 152.9 C 68.8 151.4 70.8 150.0 72.9 148.8 C 70.3 152.4 68.0 156.1 65.8 160.0 C 60.2 159.7 54.2 158.4 49.0 161.0 C 46.1 162.3 45.1 165.7 45.4 168.7 C 45.7 172.0 47.9 174.6 50.0 177.0 C 54.1 181.6 57.9 186.5 61.9 191.1 C 63.8 193.5 65.6 196.2 68.5 197.4 C 71.3 198.0 74.3 197.8 77.2 198.0 C 77.5 198.3 78.2 198.8 78.5 199.1 C 74.1 200.2 69.2 202.9 64.8 200.4 C 62.6 198.4 61.4 195.6 59.7 193.1 C 54.8 185.5 48.3 179.2 42.7 172.0 C 43.2 167.7 43.9 163.4 45.5 159.4 C 51.2 158.2 57.1 157.9 63.0 157.4 C 63.7 157.3 64.4 157.2 65.1 157.1 C 65.7 155.7 66.2 154.3 66.9 152.9 Z" />
<path fill="#120e05" stroke="#120e05" stroke-width="0.09375" opacity="1.00" d=" M 75.8 156.1 C 79.7 155.1 84.6 154.0 87.9 157.2 C 86.1 159.1 84.3 161.0 82.5 162.9 C 83.1 163.7 83.6 164.6 84.1 165.4 C 84.5 165.2 85.5 164.7 85.9 164.5 C 87.7 165.9 89.5 167.3 91.1 168.7 C 89.9 171.6 89.1 174.8 87.3 177.4 C 84.7 179.8 81.2 180.8 78.1 182.3 C 77.8 182.1 77.2 181.7 76.9 181.5 C 75.4 178.7 74.2 175.8 72.6 173.1 C 75.2 172.9 79.2 172.4 79.2 168.9 C 78.4 164.6 76.2 160.6 75.8 156.1 Z" />
<path fill="#483523" stroke="#483523" stroke-width="0.09375" opacity="1.00" d=" M 82.5 162.9 C 84.3 161.0 86.1 159.1 87.9 157.2 C 88.5 158.2 89.0 159.2 89.5 160.2 L 88.8 160.6 C 87.8 161.8 86.9 163.2 85.9 164.5 C 85.5 164.7 84.5 165.2 84.1 165.4 C 83.6 164.6 83.1 163.7 82.5 162.9 Z" />
<path fill="#c28245" stroke="#c28245" stroke-width="0.09375" opacity="1.00" d=" M 89.5 160.2 C 91.2 159.9 92.9 159.7 94.5 159.4 C 96.2 162.1 98.0 164.8 100.1 167.1 C 100.6 167.4 101.5 168.2 102.0 168.6 C 100.3 169.7 98.7 170.8 97.0 172.0 C 93.6 169.9 90.9 167.0 88.3 164.0 C 89.4 162.9 90.6 161.9 91.8 160.9 C 91.0 160.8 89.6 160.6 88.8 160.6 L 89.5 160.2 Z" />
<path fill="#e3ae5c" stroke="#e3ae5c" stroke-width="0.09375" opacity="1.00" d=" M 85.9 164.5 C 86.9 163.2 87.8 161.8 88.8 160.6 C 89.6 160.6 91.0 160.8 91.8 160.9 C 90.6 161.9 89.4 162.9 88.3 164.0 C 90.9 167.0 93.6 169.9 97.0 172.0 C 95.4 175.6 93.3 179.0 91.3 182.5 C 91.7 182.6 92.4 182.9 92.7 183.0 C 91.3 184.2 89.8 185.4 88.4 186.6 C 87.1 186.2 85.8 185.7 84.4 185.5 C 83.1 186.6 82.3 188.1 81.3 189.5 C 81.2 187.7 81.0 186.0 80.8 184.2 C 85.6 181.9 90.6 178.8 92.5 173.6 C 93.1 171.8 91.9 170.2 91.1 168.7 C 89.5 167.3 87.7 165.9 85.9 164.5 Z" />
<path fill="#19170c" stroke="#19170c" stroke-width="0.09375" opacity="1.00" d=" M 50.0 168.1 C 50.1 165.0 53.3 163.3 56.1 163.2 C 61.6 162.4 65.5 166.9 69.5 169.8 C 66.9 169.6 64.4 170.5 62.2 171.8 C 64.8 177.1 68.7 181.4 72.8 185.6 C 72.9 188.8 73.8 191.9 74.8 195.0 C 72.0 194.7 68.5 195.1 66.5 192.5 C 62.8 188.1 60.3 182.9 56.3 178.7 C 53.7 175.6 49.8 172.6 50.0 168.1 Z" />
<path fill="#3b302c" stroke="#3b302c" stroke-width="0.09375" opacity="1.00" d=" M 91.1 168.7 C 91.9 170.2 93.1 171.8 92.5 173.6 C 90.6 178.8 85.6 181.9 80.8 184.2 C 79.9 183.6 79.0 182.9 78.1 182.3 C 81.2 180.8 84.7 179.8 87.3 177.4 C 89.1 174.8 89.9 171.6 91.1 168.7 Z" />
<path fill="#ce894b" stroke="#ce894b" stroke-width="0.09375" opacity="1.00" d=" M 62.2 171.8 C 64.4 170.5 66.9 169.6 69.5 169.8 C 70.2 170.6 70.9 171.3 71.6 172.1 L 72.0 172.5 C 71.4 173.8 69.9 175.1 70.5 176.7 C 71.4 179.5 74.6 180.2 76.9 181.5 C 77.2 181.7 77.8 182.1 78.1 182.3 C 79.0 182.9 79.9 183.6 80.8 184.2 C 81.0 186.0 81.2 187.7 81.3 189.5 C 81.9 189.9 83.2 190.7 83.8 191.1 C 83.3 193.1 82.8 195.2 82.2 197.2 C 80.9 195.8 79.7 194.4 78.5 192.9 C 76.6 190.5 74.9 187.9 72.8 185.6 C 68.7 181.4 64.8 177.1 62.2 171.8 Z" />
<path fill="#fef897" stroke="#fef897" stroke-width="0.09375" opacity="1.00" d=" M 97.0 172.0 C 99.4 172.0 101.7 172.6 103.7 173.9 C 99.7 176.5 96.4 180.0 92.7 183.0 C 92.4 182.9 91.7 182.6 91.3 182.5 C 93.3 179.0 95.4 175.6 97.0 172.0 Z" />
<path fill="#aa6d39" stroke="#aa6d39" stroke-width="0.09375" opacity="1.00" d=" M 72.0 172.5 L 72.6 173.1 C 74.2 175.8 75.4 178.7 76.9 181.5 C 74.6 180.2 71.4 179.5 70.5 176.7 C 69.9 175.1 71.4 173.8 72.0 172.5 Z" />
<path fill="#fef397" stroke="#fef397" stroke-width="0.09375" opacity="1.00" d=" M 84.4 185.5 C 85.8 185.7 87.1 186.2 88.4 186.6 C 86.8 188.1 85.3 189.6 83.8 191.1 C 83.2 190.7 81.9 189.9 81.3 189.5 C 82.3 188.1 83.1 186.6 84.4 185.5 Z" />
<path fill="#4c3221" stroke="#4c3221" stroke-width="0.09375" opacity="1.00" d=" M 72.8 185.6 C 74.9 187.9 76.6 190.5 78.5 192.9 C 77.5 193.6 76.6 194.2 75.6 194.7 L 74.8 195.0 C 73.8 191.9 72.9 188.8 72.8 185.6 Z" />
<path fill="#018d75" stroke="#018d75" stroke-width="0.09375" opacity="1.00" d=" M 26.2 199.2 C 26.4 196.8 27.7 194.8 29.5 193.2 C 32.4 194.9 35.7 195.8 38.9 196.5 C 40.6 197.3 42.2 198.3 43.8 199.1 C 41.3 202.6 42.8 206.9 43.5 210.7 C 40.0 208.9 36.8 206.5 33.0 205.5 C 30.4 206.4 28.2 208.3 25.8 209.5 C 24.8 206.1 25.8 202.6 26.2 199.2 Z" />
<path fill="#0b4050" stroke="#0b4050" stroke-width="0.09375" opacity="0.56" d=" M 52.9 199.1 C 58.5 202.8 63.7 207.3 69.6 210.6 C 80.8 217.0 92.5 223.1 105.2 225.9 C 113.2 227.9 121.6 227.8 129.6 229.7 C 129.2 230.7 128.9 231.6 128.5 232.6 C 125.9 229.8 121.8 230.8 118.4 230.2 C 110.7 229.8 103.4 226.7 95.7 225.7 C 89.0 223.3 82.9 219.5 76.6 216.3 C 70.1 212.8 63.3 209.9 57.0 206.0 C 57.5 206.0 58.3 206.1 58.8 206.1 C 56.9 203.7 55.0 201.3 52.9 199.1 Z" />
<path fill="#0b4050" stroke="#0b4050" stroke-width="0.09375" opacity="0.56" d=" M 173.2 222.3 C 183.3 218.8 192.4 213.0 201.7 207.9 C 201.8 208.8 201.9 209.7 202.0 210.6 C 197.7 213.2 193.3 215.5 188.9 217.8 C 183.5 220.5 178.2 223.8 172.4 225.6 C 168.4 225.2 164.5 226.5 160.7 227.7 C 153.8 229.8 146.5 229.7 139.4 230.4 C 139.2 231.0 138.9 232.3 138.8 232.9 C 138.3 231.9 137.9 230.9 137.4 229.9 C 139.7 229.4 142.0 228.8 144.4 228.4 C 154.2 227.5 164.0 225.9 173.2 222.3 Z" />
<path fill="#0f6289" stroke="#0f6289" stroke-width="0.09375" opacity="1.00" d=" M 146.5 209.5 C 149.0 211.0 151.9 211.4 154.3 209.5 C 155.5 210.6 156.6 211.9 158.0 212.8 C 160.1 213.7 162.5 213.7 164.6 214.3 C 165.5 215.8 166.0 217.4 166.5 219.0 C 165.5 219.9 164.5 220.7 163.5 221.6 C 166.6 222.8 170.0 222.9 173.2 222.3 C 164.0 225.9 154.2 227.5 144.4 228.4 C 144.4 226.4 144.5 224.4 144.4 222.4 C 144.2 218.0 144.4 213.4 146.5 209.5 Z" />
<path fill="#029978" stroke="#029978" stroke-width="0.09375" opacity="1.00" d=" M 139.0 245.9 C 143.9 243.9 148.2 240.5 153.4 238.9 C 155.4 238.4 157.5 239.3 159.5 239.6 C 159.8 240.8 160.1 242.0 160.5 243.1 C 157.9 244.5 154.8 245.5 152.9 247.8 C 151.9 250.4 151.9 253.3 150.8 255.9 C 148.7 259.7 145.0 262.2 141.1 263.8 C 139.3 264.5 137.6 265.3 135.9 266.0 L 129.9 266.0 C 128.2 265.3 126.6 264.6 125.0 263.9 C 118.5 261.6 113.9 255.0 114.6 248.1 C 115.2 246.6 115.8 245.0 116.5 243.5 C 118.7 244.0 120.9 244.5 123.2 244.7 C 126.2 244.9 129.0 243.5 132.0 243.3 C 134.5 243.8 136.6 245.3 139.0 245.9 Z" />
<path fill="#04513e" stroke="#04513e" stroke-width="0.09375" opacity="0.49" d=" M 125.0 263.9 C 126.6 264.6 128.2 265.3 129.9 266.0 L 125.7 266.0 C 125.5 265.5 125.1 264.4 125.0 263.9 Z" />
<path fill="#014736" stroke="#014736" stroke-width="0.09375" opacity="0.45" d=" M 135.9 266.0 C 137.6 265.3 139.3 264.5 141.1 263.8 C 140.9 264.4 140.5 265.5 140.3 266.0 L 135.9 266.0 Z" />
</svg>
